G04 #@! TF.GenerationSoftware,KiCad,Pcbnew,9.0.7*
G04 #@! TF.CreationDate,2026-03-06T14:14:09-05:00*
G04 #@! TF.ProjectId,SampleBoard,53616d70-6c65-4426-9f61-72642e6b6963,rev?*
G04 #@! TF.SameCoordinates,Original*
G04 #@! TF.FileFunction,Paste,Top*
G04 #@! TF.FilePolarity,Positive*
%FSLAX46Y46*%
G04 Gerber Fmt 4.6, Leading zero omitted, Abs format (unit mm)*
G04 Created by KiCad (PCBNEW 9.0.7) date 2026-03-06 14:14:09*
%MOMM*%
%LPD*%
G01*
G04 APERTURE LIST*
%ADD10R,1.635001X2.700000*%
%ADD11R,1.377013X1.132537*%
%ADD12R,0.250013X0.600000*%
%ADD13R,0.600000X0.250013*%
%ADD14R,1.500000X1.500000*%
%ADD15R,0.350013X0.800000*%
%ADD16R,2.900000X0.700000*%
%ADD17R,4.800000X1.800000*%
%ADD18R,1.132537X1.377013*%
%ADD19R,1.410008X1.350013*%
%ADD20R,1.485014X1.727991*%
%ADD21R,0.504013X0.800000*%
%ADD22R,1.600000X2.000000*%
G04 APERTURE END LIST*
D10*
G04 #@! TO.C,C34*
X166482601Y-86000000D03*
X169517399Y-86000000D03*
G04 #@! TD*
D11*
G04 #@! TO.C,R46*
X140000000Y-119000000D03*
X140000000Y-117000000D03*
G04 #@! TD*
D12*
G04 #@! TO.C,U4*
X177251588Y-121500000D03*
X177751461Y-121500000D03*
X178251588Y-121500000D03*
X178751461Y-121500000D03*
D13*
X179500000Y-120747904D03*
X179500000Y-120248031D03*
X179500000Y-119747904D03*
X179500000Y-119248031D03*
D12*
X178749936Y-118500000D03*
X178250064Y-118500000D03*
X177749936Y-118500000D03*
X177251588Y-118500000D03*
D13*
X176500000Y-119248031D03*
X176500000Y-119747904D03*
X176500000Y-120248031D03*
X176500000Y-120747904D03*
D14*
X178000127Y-120000127D03*
G04 #@! TD*
D15*
G04 #@! TO.C,U5*
X173800102Y-73525019D03*
X174400051Y-73525019D03*
X175000000Y-73525019D03*
X175599949Y-73525019D03*
X176199898Y-73525019D03*
X176199898Y-70474981D03*
X175599949Y-70474981D03*
X175000000Y-70474981D03*
X174400051Y-70474981D03*
X173800102Y-70474981D03*
D16*
X175000000Y-72000000D03*
G04 #@! TD*
D17*
G04 #@! TO.C,C11*
X166394971Y-86000000D03*
X157605029Y-86000000D03*
G04 #@! TD*
D18*
G04 #@! TO.C,R41*
X133000000Y-110000000D03*
X135000000Y-110000000D03*
G04 #@! TD*
D10*
G04 #@! TO.C,C31*
X108482601Y-72000000D03*
X111517399Y-72000000D03*
G04 #@! TD*
D19*
G04 #@! TO.C,C10*
X133000000Y-118000000D03*
X135000000Y-118000000D03*
G04 #@! TD*
D20*
G04 #@! TO.C,C32*
X138407417Y-80000000D03*
X141592583Y-80000000D03*
G04 #@! TD*
D11*
G04 #@! TO.C,R7*
X162000000Y-113000000D03*
X162000000Y-111000000D03*
G04 #@! TD*
D10*
G04 #@! TO.C,C35*
X188482601Y-86000000D03*
X191517399Y-86000000D03*
G04 #@! TD*
D11*
G04 #@! TO.C,R31*
X190000000Y-65000000D03*
X190000000Y-63000000D03*
G04 #@! TD*
D10*
G04 #@! TO.C,C33*
X108482601Y-80000000D03*
X111517399Y-80000000D03*
G04 #@! TD*
D11*
G04 #@! TO.C,R3*
X140000000Y-65000000D03*
X140000000Y-63000000D03*
G04 #@! TD*
D21*
G04 #@! TO.C,U8*
X118649987Y-118657607D03*
X119549911Y-118657607D03*
X120450089Y-118657607D03*
X121350013Y-118657607D03*
X121350013Y-117342393D03*
X120450089Y-117342393D03*
X119549911Y-117342393D03*
X118649987Y-117342393D03*
G04 #@! TD*
D22*
G04 #@! TO.C,D8*
X156040005Y-72000000D03*
X159959995Y-72000000D03*
G04 #@! TD*
D11*
G04 #@! TO.C,R6*
X162000000Y-121000000D03*
X162000000Y-119000000D03*
G04 #@! TD*
D19*
G04 #@! TO.C,C16*
X167000000Y-134000000D03*
X169000000Y-134000000D03*
G04 #@! TD*
D11*
G04 #@! TO.C,R32*
X196000000Y-79000000D03*
X196000000Y-77000000D03*
G04 #@! TD*
D19*
G04 #@! TO.C,C15*
X161000000Y-134000000D03*
X163000000Y-134000000D03*
G04 #@! TD*
D11*
G04 #@! TO.C,R4*
X146000000Y-81000000D03*
X146000000Y-79000000D03*
G04 #@! TD*
D15*
G04 #@! TO.C,U6*
X123800102Y-73525019D03*
X124400051Y-73525019D03*
X125000000Y-73525019D03*
X125599949Y-73525019D03*
X126199898Y-73525019D03*
X126199898Y-70474981D03*
X125599949Y-70474981D03*
X125000000Y-70474981D03*
X124400051Y-70474981D03*
X123800102Y-70474981D03*
D16*
X125000000Y-72000000D03*
G04 #@! TD*
M02*
