G04 #@! TF.GenerationSoftware,KiCad,Pcbnew,9.0.7*
G04 #@! TF.CreationDate,2026-03-06T14:14:09-05:00*
G04 #@! TF.ProjectId,SampleBoard,53616d70-6c65-4426-9f61-72642e6b6963,rev?*
G04 #@! TF.SameCoordinates,Original*
G04 #@! TF.FileFunction,Copper,L1,Top*
G04 #@! TF.FilePolarity,Positive*
%FSLAX46Y46*%
G04 Gerber Fmt 4.6, Leading zero omitted, Abs format (unit mm)*
G04 Created by KiCad (PCBNEW 9.0.7) date 2026-03-06 14:14:09*
%MOMM*%
%LPD*%
G01*
G04 APERTURE LIST*
G04 #@! TA.AperFunction,SMDPad,CuDef*
%ADD10R,1.635001X2.700000*%
G04 #@! TD*
G04 #@! TA.AperFunction,SMDPad,CuDef*
%ADD11R,1.377013X1.132537*%
G04 #@! TD*
G04 #@! TA.AperFunction,SMDPad,CuDef*
%ADD12R,0.250013X0.600000*%
G04 #@! TD*
G04 #@! TA.AperFunction,SMDPad,CuDef*
%ADD13R,0.600000X0.250013*%
G04 #@! TD*
G04 #@! TA.AperFunction,SMDPad,CuDef*
%ADD14R,1.500000X1.500000*%
G04 #@! TD*
G04 #@! TA.AperFunction,SMDPad,CuDef*
%ADD15R,0.350013X0.800000*%
G04 #@! TD*
G04 #@! TA.AperFunction,SMDPad,CuDef*
%ADD16R,2.900000X0.700000*%
G04 #@! TD*
G04 #@! TA.AperFunction,SMDPad,CuDef*
%ADD17R,4.800000X1.800000*%
G04 #@! TD*
G04 #@! TA.AperFunction,SMDPad,CuDef*
%ADD18R,1.132537X1.377013*%
G04 #@! TD*
G04 #@! TA.AperFunction,SMDPad,CuDef*
%ADD19R,1.410008X1.350013*%
G04 #@! TD*
G04 #@! TA.AperFunction,SMDPad,CuDef*
%ADD20R,1.485014X1.727991*%
G04 #@! TD*
G04 #@! TA.AperFunction,SMDPad,CuDef*
%ADD21R,0.504013X0.800000*%
G04 #@! TD*
G04 #@! TA.AperFunction,SMDPad,CuDef*
%ADD22R,1.600000X2.000000*%
G04 #@! TD*
G04 #@! TA.AperFunction,ComponentPad*
%ADD23O,2.000000X2.000000*%
G04 #@! TD*
G04 APERTURE END LIST*
D10*
G04 #@! TO.P,C34,1*
G04 #@! TO.N,GND*
X166482601Y-86000000D03*
G04 #@! TO.P,C34,2*
G04 #@! TO.N,Net-(D8-K)*
X169517399Y-86000000D03*
G04 #@! TD*
D11*
G04 #@! TO.P,R46,1*
G04 #@! TO.N,Net-(U8-VBACKUP)*
X140000000Y-119000000D03*
G04 #@! TO.P,R46,2*
G04 #@! TO.N,Net-(B3-Pad1)*
X140000000Y-117000000D03*
G04 #@! TD*
D12*
G04 #@! TO.P,U4,1*
G04 #@! TO.N,Net-(U4-DIN)*
X177251588Y-121500000D03*
G04 #@! TO.P,U4,2*
G04 #@! TO.N,Net-(U4-GAIN_SLOT)*
X177751461Y-121500000D03*
G04 #@! TO.P,U4,3*
G04 #@! TO.N,GND*
X178251588Y-121500000D03*
G04 #@! TO.P,U4,4*
G04 #@! TO.N,Net-(U4-SD_MODE#)*
X178751461Y-121500000D03*
D13*
G04 #@! TO.P,U4,5*
G04 #@! TO.N,unconnected-(U4-N.C.-Pad5)*
X179500000Y-120747904D03*
G04 #@! TO.P,U4,6*
G04 #@! TO.N,unconnected-(U4-N.C.-Pad6)*
X179500000Y-120248031D03*
G04 #@! TO.P,U4,7*
G04 #@! TO.N,+5V*
X179500000Y-119747904D03*
G04 #@! TO.P,U4,8*
X179500000Y-119248031D03*
D12*
G04 #@! TO.P,U4,9*
G04 #@! TO.N,Net-(U4-OUTP)*
X178749936Y-118500000D03*
G04 #@! TO.P,U4,10*
G04 #@! TO.N,Net-(U4-OUTN)*
X178250064Y-118500000D03*
G04 #@! TO.P,U4,11*
G04 #@! TO.N,GND*
X177749936Y-118500000D03*
G04 #@! TO.P,U4,12*
G04 #@! TO.N,unconnected-(U4-N.C.-Pad12)*
X177251588Y-118500000D03*
D13*
G04 #@! TO.P,U4,13*
G04 #@! TO.N,unconnected-(U4-N.C.-Pad13)*
X176500000Y-119248031D03*
G04 #@! TO.P,U4,14*
G04 #@! TO.N,Net-(U4-LRCLK)*
X176500000Y-119747904D03*
G04 #@! TO.P,U4,15*
G04 #@! TO.N,GND*
X176500000Y-120248031D03*
G04 #@! TO.P,U4,16*
G04 #@! TO.N,Net-(U4-BCLK)*
X176500000Y-120747904D03*
D14*
G04 #@! TO.P,U4,17*
G04 #@! TO.N,GND*
X178000127Y-120000127D03*
G04 #@! TD*
D15*
G04 #@! TO.P,U5,1*
G04 #@! TO.N,GND*
X173800102Y-73525019D03*
G04 #@! TO.P,U5,2*
X174400051Y-73525019D03*
G04 #@! TO.P,U5,3*
G04 #@! TO.N,Net-(D8-K)*
X175000000Y-73525019D03*
G04 #@! TO.P,U5,4*
X175599949Y-73525019D03*
G04 #@! TO.P,U5,5*
G04 #@! TO.N,unconnected-(U5-PGOOD-Pad5)*
X176199898Y-73525019D03*
G04 #@! TO.P,U5,6*
G04 #@! TO.N,+3.3V*
X176199898Y-70474981D03*
G04 #@! TO.P,U5,7*
G04 #@! TO.N,Net-(U5-FB)*
X175599949Y-70474981D03*
G04 #@! TO.P,U5,8*
G04 #@! TO.N,unconnected-(U5-DNC-Pad8)*
X175000000Y-70474981D03*
G04 #@! TO.P,U5,9*
G04 #@! TO.N,unconnected-(U5-DNC-Pad9)*
X174400051Y-70474981D03*
G04 #@! TO.P,U5,10*
G04 #@! TO.N,unconnected-(U5-DNC-Pad10)*
X173800102Y-70474981D03*
D16*
G04 #@! TO.P,U5,11*
G04 #@! TO.N,GND*
X175000000Y-72000000D03*
G04 #@! TD*
D17*
G04 #@! TO.P,C11,1*
G04 #@! TO.N,Net-(D8-K)*
X166394971Y-86000000D03*
G04 #@! TO.P,C11,2*
G04 #@! TO.N,GND*
X157605029Y-86000000D03*
G04 #@! TD*
D18*
G04 #@! TO.P,R41,1*
G04 #@! TO.N,Net-(U8-EVI)*
X133000000Y-110000000D03*
G04 #@! TO.P,R41,2*
G04 #@! TO.N,GND*
X135000000Y-110000000D03*
G04 #@! TD*
D10*
G04 #@! TO.P,C31,1*
G04 #@! TO.N,GND*
X108482601Y-72000000D03*
G04 #@! TO.P,C31,2*
G04 #@! TO.N,+12V*
X111517399Y-72000000D03*
G04 #@! TD*
D19*
G04 #@! TO.P,C10,1*
G04 #@! TO.N,GND*
X133000000Y-118000000D03*
G04 #@! TO.P,C10,2*
G04 #@! TO.N,Net-(U8-VBACKUP)*
X135000000Y-118000000D03*
G04 #@! TD*
D20*
G04 #@! TO.P,C32,1*
G04 #@! TO.N,GND*
X138407417Y-80000000D03*
G04 #@! TO.P,C32,2*
G04 #@! TO.N,+5V*
X141592583Y-80000000D03*
G04 #@! TD*
D11*
G04 #@! TO.P,R7,1*
G04 #@! TO.N,GND*
X162000000Y-113000000D03*
G04 #@! TO.P,R7,2*
G04 #@! TO.N,Net-(U4-GAIN_SLOT)*
X162000000Y-111000000D03*
G04 #@! TD*
D10*
G04 #@! TO.P,C35,1*
G04 #@! TO.N,GND*
X188482601Y-86000000D03*
G04 #@! TO.P,C35,2*
G04 #@! TO.N,+3.3V*
X191517399Y-86000000D03*
G04 #@! TD*
D11*
G04 #@! TO.P,R31,1*
G04 #@! TO.N,+3.3V*
X190000000Y-65000000D03*
G04 #@! TO.P,R31,2*
G04 #@! TO.N,Net-(U5-FB)*
X190000000Y-63000000D03*
G04 #@! TD*
D10*
G04 #@! TO.P,C33,1*
G04 #@! TO.N,GND*
X108482601Y-80000000D03*
G04 #@! TO.P,C33,2*
G04 #@! TO.N,+12V*
X111517399Y-80000000D03*
G04 #@! TD*
D11*
G04 #@! TO.P,R3,1*
G04 #@! TO.N,+5V*
X140000000Y-65000000D03*
G04 #@! TO.P,R3,2*
G04 #@! TO.N,Net-(U6-FB)*
X140000000Y-63000000D03*
G04 #@! TD*
D21*
G04 #@! TO.P,U8,1*
G04 #@! TO.N,unconnected-(U8-CLKOUT-Pad1)*
X118649987Y-118657607D03*
G04 #@! TO.P,U8,2*
G04 #@! TO.N,unconnected-(U8-INT#-Pad2)*
X119549911Y-118657607D03*
G04 #@! TO.P,U8,3*
G04 #@! TO.N,Net-(U8-SCL)*
X120450089Y-118657607D03*
G04 #@! TO.P,U8,4*
G04 #@! TO.N,Net-(U8-SDA)*
X121350013Y-118657607D03*
G04 #@! TO.P,U8,5*
G04 #@! TO.N,GND*
X121350013Y-117342393D03*
G04 #@! TO.P,U8,6*
G04 #@! TO.N,Net-(U8-VBACKUP)*
X120450089Y-117342393D03*
G04 #@! TO.P,U8,7*
G04 #@! TO.N,+3.3V*
X119549911Y-117342393D03*
G04 #@! TO.P,U8,8*
G04 #@! TO.N,Net-(U8-EVI)*
X118649987Y-117342393D03*
G04 #@! TD*
D22*
G04 #@! TO.P,D8,1*
G04 #@! TO.N,Net-(D8-K)*
X156040005Y-72000000D03*
G04 #@! TO.P,D8,2*
G04 #@! TO.N,+12V*
X159959995Y-72000000D03*
G04 #@! TD*
D11*
G04 #@! TO.P,R6,1*
G04 #@! TO.N,+5V*
X162000000Y-121000000D03*
G04 #@! TO.P,R6,2*
G04 #@! TO.N,Net-(U4-SD_MODE#)*
X162000000Y-119000000D03*
G04 #@! TD*
D19*
G04 #@! TO.P,C16,1*
G04 #@! TO.N,+5V*
X167000000Y-134000000D03*
G04 #@! TO.P,C16,2*
G04 #@! TO.N,GND*
X169000000Y-134000000D03*
G04 #@! TD*
D11*
G04 #@! TO.P,R32,1*
G04 #@! TO.N,Net-(U5-FB)*
X196000000Y-79000000D03*
G04 #@! TO.P,R32,2*
G04 #@! TO.N,GND*
X196000000Y-77000000D03*
G04 #@! TD*
D19*
G04 #@! TO.P,C15,1*
G04 #@! TO.N,+5V*
X161000000Y-134000000D03*
G04 #@! TO.P,C15,2*
G04 #@! TO.N,GND*
X163000000Y-134000000D03*
G04 #@! TD*
D11*
G04 #@! TO.P,R4,1*
G04 #@! TO.N,Net-(U6-FB)*
X146000000Y-81000000D03*
G04 #@! TO.P,R4,2*
G04 #@! TO.N,GND*
X146000000Y-79000000D03*
G04 #@! TD*
D15*
G04 #@! TO.P,U6,1*
G04 #@! TO.N,GND*
X123800102Y-73525019D03*
G04 #@! TO.P,U6,2*
X124400051Y-73525019D03*
G04 #@! TO.P,U6,3*
G04 #@! TO.N,+12V*
X125000000Y-73525019D03*
G04 #@! TO.P,U6,4*
X125599949Y-73525019D03*
G04 #@! TO.P,U6,5*
G04 #@! TO.N,unconnected-(U6-PGOOD-Pad5)*
X126199898Y-73525019D03*
G04 #@! TO.P,U6,6*
G04 #@! TO.N,+5V*
X126199898Y-70474981D03*
G04 #@! TO.P,U6,7*
G04 #@! TO.N,Net-(U6-FB)*
X125599949Y-70474981D03*
G04 #@! TO.P,U6,8*
G04 #@! TO.N,unconnected-(U6-DNC-Pad8)*
X125000000Y-70474981D03*
G04 #@! TO.P,U6,9*
G04 #@! TO.N,unconnected-(U6-DNC-Pad9)*
X124400051Y-70474981D03*
G04 #@! TO.P,U6,10*
G04 #@! TO.N,unconnected-(U6-DNC-Pad10)*
X123800102Y-70474981D03*
D16*
G04 #@! TO.P,U6,11*
G04 #@! TO.N,GND*
X125000000Y-72000000D03*
G04 #@! TD*
D23*
G04 #@! TO.P,B3,1*
G04 #@! TO.N,Net-(B3-Pad1)*
X112000000Y-144000000D03*
G04 #@! TO.P,B3,2*
G04 #@! TO.N,GND*
X112000000Y-124000000D03*
G04 #@! TD*
M02*
